<svg height="511pt" viewBox="-95 1 511 511.99998" width="511pt" xmlns="http://www.w3.org/2000/svg"><path d="m160.5 112c43.570312-.0625 84.796875 19.726562 112 53.757812v-133.757812c0-8.835938-7.164062-16-16-16h-192c-8.835938 0-16 7.164062-16 16v133.757812c27.203125-34.03125 68.429688-53.820312 112-53.757812zm0 0" fill="#ff7956"/><path d="m160.5 400c-43.570312.0625-84.796875-19.726562-112-53.761719v133.761719c0 8.835938 7.164062 16 16 16h192c8.835938 0 16-7.164062 16-16v-133.761719c-27.203125 34.035157-68.429688 53.824219-112 53.761719zm0 0" fill="#ff7956"/><path d="m272.5 165.757812c-49.835938-61.429687-140.039062-70.828124-201.46875-20.992187-61.433594 49.835937-70.832031 140.039063-20.996094 201.46875 49.835938 61.433594 140.039063 70.832031 201.46875 20.996094 33.523438-27.195313 52.996094-68.0625 52.996094-111.230469.007812-32.863281-11.289062-64.726562-32-90.242188zm0 0" fill="#ffe477"/><g fill="#3e3d42"><path d="m320.5 256c-.074219-34.460938-11.300781-67.972656-32-95.519531v-128.480469c0-17.671875-14.328125-32-32-32h-192c-17.675781 0-32 14.328125-32 32v128.496094c-42.667969 56.527344-42.667969 134.496094 0 191.023437v128.480469c0 17.671875 14.324219 32 32 32h192c17.671875 0 32-14.328125 32-32v-128.496094c20.691406-27.546875 31.917969-61.050781 32-95.503906zm-256-224h192v96c-3.585938-2.703125-7.28125-5.230469-11.058594-7.617188-.589844-.367187-1.214844-.6875-1.824218-1.054687-3.933594-2.398437-8-4.609375-12.09375-6.65625-1.359376-.6875-2.738282-1.328125-4.113282-1.96875-3.902344-1.789063-7.882812-3.433594-11.933594-4.925781-.976562-.351563-1.9375-.769532-2.929687-1.121094-4.960937-1.695312-10.03125-3.199219-15.167969-4.351562-1.246094-.289063-2.527344-.511719-3.792968-.769532-4.078126-.863281-8.191407-1.597656-12.351563-2.09375-1.519531-.195312-3.023437-.402344-4.542969-.5625-5.359375-.511718-10.734375-.878906-16.191406-.878906s-10.832031.367188-16.191406.894531c-1.523438.160157-3.023438.371094-4.546875.5625-4.144531.542969-8.253907 1.230469-12.304688 2.078125-1.292969.273438-2.589843.496094-3.871093.800782-5.097657 1.1875-10.136719 2.632812-15.085938 4.335937-1.058594.351563-2.066406.785156-3.105469 1.167969-3.96875 1.453125-7.867187 3.050781-11.695312 4.800781-1.457031.671875-2.898438 1.34375-4.320313 2.0625-3.953125 1.96875-7.839844 4.097656-11.617187 6.402344-.75.464843-1.597657.847656-2.269531 1.328125-3.761719 2.367187-7.441407 4.878906-10.992188 7.566406zm-3.503906 143.742188c24.132812-30.277344 60.785156-47.859376 99.503906-47.742188 4.808594.003906 9.617188.269531 14.398438.800781 70.25 7.890625 120.804687 71.238281 112.914062 141.488281-7.28125 64.796876-62.105469 113.769532-127.3125 113.710938-4.8125-.003906-9.617188-.269531-14.402344-.800781-70.148437-7.851563-120.648437-71.082031-112.800781-141.230469 2.71875-24.265625 12.328125-47.25 27.699219-66.226562zm195.503906 304.257812h-192v-96c3.582031 2.703125 7.277344 5.230469 11.054688 7.617188.589843.367187 1.214843.6875 1.808593 1.039062 3.933594 2.414062 8 4.625 12.109375 6.671875 1.363282.6875 2.738282 1.328125 4.113282 1.96875 3.90625 1.808594 7.890624 3.4375 11.9375 4.925781.976562.351563 1.933593.769532 2.925781 1.121094 4.960937 1.695312 10.03125 3.199219 15.167969 4.351562 1.25.289063 2.527343.511719 3.792968.769532 4.078125.863281 8.191406 1.597656 12.351563 2.09375 1.519531.195312 3.023437.402344 4.546875.5625 5.359375.527344 10.734375.894531 16.191406.894531 5.453125 0 10.832031-.367187 16.191406-.894531 1.519532-.160156 3.023438-.367188 4.542969-.5625 4.148437-.542969 8.257813-1.234375 12.320313-2.078125 1.28125-.273438 2.574218-.496094 3.855468-.800781 5.101563-1.1875 10.136719-2.632813 15.089844-4.335938 1.054688-.351562 2.0625-.785156 3.101562-1.167969 3.96875-1.460937 7.867188-3.0625 11.699219-4.800781 1.453125-.671875 2.878907-1.34375 4.320313-2.046875 3.949218-1.984375 7.839844-4.113281 11.628906-6.398437.738281-.464844 1.523438-.867188 2.257812-1.328126 3.757813-2.371093 7.4375-4.800781 10.992188-7.570312zm0 0"/><path d="m197.1875 315.3125c6.355469 6.136719 16.484375 5.960938 22.625-.394531 5.988281-6.199219 5.988281-16.03125 0-22.230469l-43.3125-43.3125v-73.375c0-8.835938-7.164062-16-16-16-8.839844 0-16 7.164062-16 16v80c0 4.242188 1.6875 8.3125 4.6875 11.3125zm0 0"/></g></svg>